<svg xmlns="http://www.w3.org/2000/svg" viewBox="0 2 48 48"><path fill="#7E57C2" d="M24.2 6.899999999999999A19 19 0 1 0 24.2 44.9A19 19 0 1 0 24.2 6.899999999999999Z"/><path d="M22 31L26 31 29 28 29 24 26 21 22 21 19 24 19 28z"/><path fill="#512DA8" d="M28 29l-2 2h14.2c.2-.6.3-1.3.5-2H28zM29 24V9.8c-.6-.2-1.3-.3-2-.5V22L29 24zM15.9 11c-.6.3-1.2.7-1.7 1.1l8.9 8.9H26L15.9 11zM29 27v1l10-9.9c-.3-.6-.7-1.2-1.1-1.8l-9 8.8L29 27 29 27zM22.8 31H22l9.9 10c.6-.3 1.2-.7 1.8-1.1l-8.8-9L22.8 31 22.8 31zM19 28v14.2c.6.2 1.3.3 2 .5V30L19 28zM20 23l2-2H7.7c-.2.6-.3 1.3-.5 2H20zM19 25v-1L9.1 34.1c.3.6.7 1.2 1.1 1.7l8.8-9V25z"/><path fill="#311B92" d="M24,9c9.4,0,17,7.6,17,17s-7.6,17-17,17S7,35.4,7,26S14.6,9,24,9 M24,6C13,6,4,15,4,26s9,20,20,20s20-9,20-20S35,6,24,6L24,6z"/></svg>